<?xml version="1.0" encoding="UTF-8"?>
<!-- Generator: Adobe Illustrator 24.0.1, SVG Export Plug-In . SVG Version: 6.00 Build 0)  -->
<svg version="1.1" id="Calque_1" xmlns="http://www.w3.org/2000/svg" xmlns:xlink="http://www.w3.org/1999/xlink" x="0px" y="0px" viewBox="0 0 227.1 73.3" style="enable-background:new 0 0 227.1 73.3;" xml:space="preserve">
<style type="text/css">
	.st0{fill:#ED1E79;}
	.st1{fill:#FC8317;}
	.st2{fill:#1D1D1B;}
</style>
<path class="st0" d="M226.2,22.6l-5.4-5.3c-1.2-1.2-1.2-3.1,0-4.4l0,0l5.1-5.1c1.2-1.2,1.2-3.2,0-4.4l0,0l-0.2-0.2  c-1.2-1.2-3.2-1.2-4.4,0l-5.1,5.1c-1.2,1.2-3.2,1.2-4.4,0l0,0L211,7.5c-1.2-1.2-3.2-1.2-4.4,0l0,0l-0.2,0.2c-1.2,1.2-1.2,3.1,0,4.3  l0.9,0.9c1.2,1.2,1.2,3.1,0,4.3l-1.2,1.2c-1.2,1.2-1.2,3.2,0,4.4l0.2,0.2c1.2,1.2,3.2,1.2,4.4,0l0,0l1.1-1.1c1.2-1.2,3.2-1.2,4.4,0  l0,0l5.4,5.3c1.2,1.2,3.2,1.2,4.4,0l0.2-0.2C227.4,25.8,227.4,23.8,226.2,22.6L226.2,22.6z"/>
<path class="st1" d="M203,24.7c-0.8-0.8-2-1.1-3.1-0.7c-4.9,1.8-10.3-0.8-12.1-5.7c-0.9-2.5-0.7-5.3,0.6-7.7  c0.8-1.6,2.1-2.9,3.7-3.7c2.5-1.3,5.5-1.5,8.2-0.4c1.1,0.5,2.4,0.2,3.2-0.6l0,0c1.1-1.1,1.1-3,0-4.1c-0.3-0.3-0.6-0.5-0.9-0.6  c-3.9-1.6-8.3-1.6-12.2,0.1c-3.4,1.4-6.2,4.1-7.6,7.5c-4.6,11,3.4,21.6,13.9,21.6c1.8,0,3.5-0.3,5.2-0.9c1.5-0.5,2.3-2.2,1.8-3.7  C203.6,25.3,203.3,25,203,24.7L203,24.7z"/>
<g>
	<path class="st1" d="M0,67.7C0,65.6,1.5,64,3.6,64c1.7,0,3,1,3.4,2.5H5.9C5.5,65.6,4.6,65,3.6,65c-1.4,0-2.5,1.1-2.5,2.6   s1.1,2.6,2.5,2.6c1,0,1.9-0.5,2.3-1.5H7c-0.4,1.5-1.8,2.6-3.4,2.6C1.5,71.3,0,69.8,0,67.7z"/>
	<path class="st1" d="M7.9,68.2v-4.1H9V68c0,1.4,0.8,2.2,2,2.2c1.3,0,2-0.9,2-2.2v-3.9h1.1v4.1c0,1.9-1.2,3.1-3.1,3.1   C9.1,71.3,7.9,70.1,7.9,68.2z"/>
	<path class="st1" d="M15.1,69h1.1c0.1,0.8,0.8,1.3,1.8,1.3s1.6-0.4,1.6-1.1c0-0.8-0.9-1-1.8-1.1c-1.2-0.2-2.5-0.5-2.5-2   c0-1.2,1.1-2,2.6-2c1.6,0,2.6,0.8,2.6,2.2h-1c0-0.8-0.6-1.2-1.6-1.2c-0.9,0-1.6,0.4-1.6,1c0,0.7,0.8,0.9,1.7,1   c1.2,0.2,2.6,0.4,2.6,2.1c0,1.3-1.1,2.2-2.8,2.2C16.2,71.3,15.2,70.5,15.1,69z"/>
	<path class="st1" d="M25.4,70.2v1h-0.9c-1.5,0-2.4-0.9-2.4-2.5v-3.6h-1.2V65l2.2-2.3h0.2v1.5h2.2v1h-2.2v3.5c0,0.9,0.5,1.5,1.5,1.5   H25.4z"/>
	<path class="st1" d="M25.7,67.7c0-2.1,1.6-3.7,3.7-3.7s3.7,1.6,3.7,3.7s-1.6,3.7-3.7,3.7C27.3,71.3,25.7,69.8,25.7,67.7z M32,67.7   c0-1.5-1.1-2.6-2.6-2.6s-2.6,1.1-2.6,2.6s1.1,2.6,2.6,2.6C30.9,70.3,32,69.2,32,67.7z"/>
	<path class="st1" d="M44.5,66.7v4.5h-1.1v-4.1c0-1.3-0.6-2-1.6-2s-1.9,1-1.9,2.3v3.9h-1.1V67c0-1.3-0.6-2-1.6-2s-1.9,1-1.9,2.3v3.9   h-1.1v-7H35l0.2,1c0.5-0.7,1.4-1.1,2.2-1.1c1,0,1.8,0.5,2.2,1.3C40.1,64.5,41,64,42,64C43.5,64,44.5,65.1,44.5,66.7z"/>
	<path class="st1" d="M52.6,68.1h-6c0.2,1.3,1.1,2.2,2.5,2.2c1,0,1.8-0.5,2.2-1.2h1.2c-0.6,1.4-1.8,2.3-3.4,2.3   c-2,0-3.6-1.6-3.6-3.7S47,64,49.1,64s3.5,1.6,3.5,3.7C52.6,67.8,52.6,68,52.6,68.1z M46.6,67.1h4.9c-0.2-1.2-1.2-2-2.4-2   C47.8,65.1,46.8,65.9,46.6,67.1z"/>
	<path class="st1" d="M57.5,64.1v1h-0.7c-1.3,0-2,0.8-2,2.2v3.8h-1.1v-7h0.8l0.2,1.1c0.5-0.7,1.2-1.1,2.2-1.1H57.5z"/>
	<path class="st1" d="M60.1,67.7c0-2.1,1.6-3.7,3.6-3.7c1.7,0,3,1,3.4,2.5H66c-0.4-0.9-1.3-1.5-2.3-1.5c-1.4,0-2.5,1.1-2.5,2.6   s1.1,2.6,2.5,2.6c1,0,1.9-0.5,2.3-1.5h1.1c-0.4,1.5-1.8,2.6-3.4,2.6C61.6,71.3,60.1,69.8,60.1,67.7z"/>
	<path class="st1" d="M74.7,68.1h-6c0.2,1.3,1.1,2.2,2.5,2.2c1,0,1.8-0.5,2.2-1.2h1.2c-0.6,1.4-1.8,2.3-3.4,2.3   c-2,0-3.6-1.6-3.6-3.7s1.5-3.7,3.6-3.7s3.5,1.6,3.5,3.7C74.7,67.8,74.7,68,74.7,68.1z M68.7,67.1h4.9c-0.2-1.2-1.2-2-2.4-2   C69.9,65.1,68.9,65.9,68.7,67.1z"/>
	<path class="st1" d="M82,67v4.2h-1.1v-3.9c0-1.4-0.7-2.2-1.9-2.2c-1.2,0-2.1,1-2.1,2.3v3.8h-1.1v-7h0.8l0.2,1.1   c0.5-0.8,1.4-1.3,2.5-1.3C81,64,82,65.3,82,67z"/>
	<path class="st1" d="M87.2,70.2v1h-0.9c-1.5,0-2.4-0.9-2.4-2.5v-3.6h-1.2V65l2.2-2.3h0.2v1.5h2.2v1h-2.2v3.5c0,0.9,0.5,1.5,1.5,1.5   H87.2z"/>
	<path class="st1" d="M91.9,64.1v1h-0.7c-1.3,0-2,0.8-2,2.2v3.8h-1.1v-7h0.8l0.2,1.1c0.5-0.7,1.2-1.1,2.2-1.1H91.9z"/>
	<path class="st1" d="M92.5,61.7h1.2V63h-1.2V61.7z M92.6,64.2h1.1v7h-1.1V64.2z"/>
	<path class="st1" d="M94.8,67.7c0-2.1,1.6-3.7,3.6-3.7c1.7,0,3,1,3.4,2.5h-1.1c-0.4-0.9-1.3-1.5-2.3-1.5c-1.4,0-2.5,1.1-2.5,2.6   s1.1,2.6,2.5,2.6c1,0,1.9-0.5,2.3-1.5h1.1c-0.4,1.5-1.8,2.6-3.4,2.6C96.3,71.3,94.8,69.8,94.8,67.7z"/>
	<path class="st1" d="M102.8,61.7h1.2V63h-1.2V61.7z M102.8,64.2h1.1v7h-1.1V64.2z"/>
	<path class="st1" d="M109.3,70.2v1h-0.9c-1.5,0-2.4-0.9-2.4-2.5v-3.6h-1.2V65l2.2-2.3h0.2v1.5h2.2v1H107v3.5c0,0.9,0.5,1.5,1.5,1.5   H109.3z"/>
	<path class="st1" d="M116.5,64.2l-3.3,7.3c-0.8,1.7-1.4,2.2-2.7,2.2h-0.7v-1h0.6c0.9,0,1.3-0.3,1.8-1.5l0.3-0.5l-3.1-6.5h1.2   l2.5,5.3l2.4-5.3H116.5z"/>
	<path class="st1" d="M126.6,64.2v7h-0.9l-0.1-1.1c-0.6,0.8-1.6,1.2-2.8,1.2c-2.1,0-3.6-1.6-3.6-3.7s1.6-3.7,3.6-3.7   c1.1,0,2.1,0.5,2.8,1.2l0.1-1.1h0.9V64.2z M125.5,67.7c0-1.5-1.1-2.6-2.6-2.6s-2.6,1.1-2.6,2.6s1.1,2.6,2.6,2.6   C124.4,70.3,125.5,69.2,125.5,67.7z"/>
	<path class="st1" d="M127.7,67.7c0-2.1,1.6-3.7,3.6-3.7c1.7,0,3,1,3.4,2.5h-1.1c-0.4-0.9-1.3-1.5-2.3-1.5c-1.4,0-2.5,1.1-2.5,2.6   s1.1,2.6,2.5,2.6c1,0,1.9-0.5,2.3-1.5h1.1c-0.4,1.5-1.8,2.6-3.4,2.6C129.3,71.3,127.7,69.8,127.7,67.7z"/>
	<path class="st1" d="M135.2,67.7c0-2.1,1.6-3.7,3.6-3.7c1.7,0,3,1,3.4,2.5h-1.1c-0.4-0.9-1.3-1.5-2.3-1.5c-1.4,0-2.5,1.1-2.5,2.6   s1.1,2.6,2.5,2.6c1,0,1.9-0.5,2.3-1.5h1.1c-0.4,1.5-1.8,2.6-3.4,2.6C136.8,71.3,135.2,69.8,135.2,67.7z"/>
	<path class="st1" d="M149.8,68.1h-6c0.2,1.3,1.1,2.2,2.5,2.2c1,0,1.8-0.5,2.2-1.2h1.2c-0.6,1.4-1.8,2.3-3.4,2.3   c-2,0-3.6-1.6-3.6-3.7s1.5-3.7,3.6-3.7s3.5,1.6,3.5,3.7C149.8,67.8,149.8,68,149.8,68.1z M143.9,67.1h4.9c-0.2-1.2-1.2-2-2.4-2   C145,65.1,144.1,65.9,143.9,67.1z"/>
	<path class="st1" d="M150.9,61.7h1.1v9.5h-1.1V61.7z"/>
	<path class="st1" d="M160.2,68.1h-6c0.2,1.3,1.1,2.2,2.5,2.2c1,0,1.8-0.5,2.2-1.2h1.2c-0.6,1.4-1.8,2.3-3.4,2.3   c-2,0-3.6-1.6-3.6-3.7s1.5-3.7,3.6-3.7s3.5,1.6,3.5,3.7C160.3,67.8,160.3,68,160.2,68.1z M154.3,67.1h4.9c-0.2-1.2-1.2-2-2.4-2   C155.5,65.1,154.5,65.9,154.3,67.1z"/>
	<path class="st1" d="M165.2,64.1v1h-0.7c-1.3,0-2,0.8-2,2.2v3.8h-1.1v-7h0.8l0.2,1.1c0.5-0.7,1.2-1.1,2.2-1.1H165.2z"/>
	<path class="st1" d="M172.5,64.2v7h-0.9l-0.1-1.1c-0.6,0.8-1.6,1.2-2.8,1.2c-2.1,0-3.6-1.6-3.6-3.7s1.6-3.7,3.6-3.7   c1.1,0,2.1,0.5,2.8,1.2l0.1-1.1h0.9V64.2z M171.3,67.7c0-1.5-1.1-2.6-2.6-2.6s-2.6,1.1-2.6,2.6s1.1,2.6,2.6,2.6   C170.3,70.3,171.3,69.2,171.3,67.7z"/>
	<path class="st1" d="M177.8,70.2v1h-0.9c-1.5,0-2.4-0.9-2.4-2.5v-3.6h-1.2V65l2.2-2.3h0.2v1.5h2.2v1h-2.2v3.5   c0,0.9,0.5,1.5,1.5,1.5H177.8z"/>
	<path class="st1" d="M178.1,67.7c0-2.1,1.6-3.7,3.7-3.7c2.1,0,3.7,1.6,3.7,3.7s-1.6,3.7-3.7,3.7C179.7,71.3,178.1,69.8,178.1,67.7z    M184.4,67.7c0-1.5-1.1-2.6-2.6-2.6s-2.6,1.1-2.6,2.6s1.1,2.6,2.6,2.6C183.3,70.3,184.4,69.2,184.4,67.7z"/>
	<path class="st1" d="M190.5,64.1v1h-0.7c-1.3,0-2,0.8-2,2.2v3.8h-1.1v-7h0.8l0.2,1.1c0.5-0.7,1.2-1.1,2.2-1.1H190.5z"/>
</g>
<g>
	<path class="st2" d="M29.4,43.5v12h-5.1V44.3c0-2.5-1-3.9-2.8-3.9c-2.3,0-3.6,1.7-3.6,4.7v10.3h-5V44.3c0-2.5-1-3.9-2.8-3.9   c-2.3,0-3.7,1.7-3.7,4.7v10.3H1.2V36.3h3.6l1,2.4c1.3-1.7,3.4-2.8,5.6-2.8c2.4,0,4.4,1.1,5.5,3.1c1.3-1.9,3.4-3.1,5.9-3.1   C26.7,35.9,29.4,39,29.4,43.5z"/>
	<path class="st2" d="M52.4,45.8c0,0.5,0,1-0.1,1.5H38c0.4,2.6,2.1,4,4.6,4c1.8,0,3.2-0.8,4-2.2H52c-1.4,4.2-5,6.8-9.4,6.8   c-5.6,0-9.8-4.4-9.8-10.1c0-5.8,4.2-10.1,9.8-10.1C48.4,35.8,52.4,40.3,52.4,45.8L52.4,45.8z M38.2,43.8h9.2   c-0.7-2.3-2.4-3.6-4.7-3.6C40.4,40.2,38.7,41.5,38.2,43.8z"/>
	<path class="st2" d="M75,29.4v26h-3.8l-0.6-1.6C69.1,55.2,67,56,64.8,56c-5.7,0-9.9-4.3-9.9-10.1c0-5.8,4.2-10.1,9.9-10.1   c2,0,3.7,0.6,5.2,1.6v-7.9H75z M70.3,45.9c0-3-2.2-5.2-5.2-5.2c-3,0-5.1,2.2-5.1,5.2c0,3,2.2,5.2,5.1,5.2   C68.1,51.1,70.3,48.9,70.3,45.9z"/>
	<path class="st2" d="M80,36.3h5.1v19.1H80V36.3z M80,29h5.1v4.8H80V29z"/>
	<path class="st2" d="M109.2,36.3v19.1h-4l-0.4-1.7c-1.6,1.4-3.7,2.3-6.1,2.3c-5.7,0-9.9-4.3-9.9-10.1c0-5.8,4.2-10.1,9.9-10.1   c2.4,0,4.6,0.9,6.2,2.3l0.5-1.8H109.2z M104.2,45.8c0-3-2.2-5.2-5.1-5.2c-3,0-5.2,2.2-5.2,5.2s2.2,5.2,5.2,5.2   C102,51.1,104.2,48.8,104.2,45.8z"/>
	<path class="st2" d="M125.7,50.8v4.6h-3.6c-4.2,0-6.7-2.6-6.7-6.8v-8.1h-3.4v-1.1l7.5-8h1v5h5.2v4.1h-5.1v7.4c0,1.8,1,2.9,2.9,2.9   H125.7z"/>
	<path class="st2" d="M146.2,47.3h-14.3c0.4,2.6,2.1,4,4.6,4c1.8,0,3.2-0.8,4-2.2h5.4c-1.4,4.2-5,6.8-9.4,6.8   c-5.6,0-9.8-4.4-9.8-10.1c0-5.8,4.2-10.1,9.8-10.1c5.8,0,9.8,4.5,9.8,10C146.3,46.3,146.3,46.8,146.2,47.3z M132.1,43.8h9.2   c-0.7-2.3-2.4-3.6-4.7-3.6C134.3,40.2,132.7,41.5,132.1,43.8z"/>
	<path class="st2" d="M158.8,56c-5.7,0-10-4.4-10-10.1c0-5.7,4.3-10,10.1-10c4.9,0,8.7,3.1,9.6,7.8h-5.1c-0.8-1.9-2.5-3-4.6-3   c-2.8,0-4.9,2.2-4.9,5.2c0,3,2.1,5.3,4.9,5.3c2.1,0,3.7-1.2,4.6-3.2h5.1C167.6,52.7,163.7,56,158.8,56L158.8,56z"/>
	<path class="st2" d="M182.7,35.9c4.3,0,6.9,3.1,6.9,7.9v11.6h-5.1V44.7c0-2.9-1-4.3-3.3-4.3c-2.5,0-4.2,1.9-4.2,5v10h-5.1v-26h5.1   v8.7C178.4,36.7,180.4,35.9,182.7,35.9L182.7,35.9z"/>
</g>
</svg>